<mxfile host="65bd71144e">
    <diagram id="9VYCjy2TpCtCJThlCB2O" name="第 1 页">
        <mxGraphModel dx="1008" dy="787" grid="1" gridSize="10" guides="1" tooltips="1" connect="1" arrows="1" fold="1" page="1" pageScale="1" pageWidth="827" pageHeight="1169" math="0" shadow="0">
            <root>
                <mxCell id="0"/>
                <mxCell id="1" parent="0"/>
                <mxCell id="2" value="" style="rounded=0;whiteSpace=wrap;html=1;" parent="1" vertex="1">
                    <mxGeometry x="9" y="7" width="400" height="250" as="geometry"/>
                </mxCell>
                <mxCell id="4" value="Log" style="rounded=0;whiteSpace=wrap;html=1;fillColor=#eeeeee;strokeColor=#36393d;" parent="1" vertex="1">
                    <mxGeometry x="9" y="7" width="59" height="20" as="geometry"/>
                </mxCell>
                <mxCell id="9" value="Memory" style="rounded=0;whiteSpace=wrap;html=1;" parent="1" vertex="1">
                    <mxGeometry x="68" y="7" width="59" height="20" as="geometry"/>
                </mxCell>
                <mxCell id="12" value="" style="rounded=0;whiteSpace=wrap;html=1;fillColor=#eeeeee;strokeColor=#36393d;" parent="1" vertex="1">
                    <mxGeometry x="179" y="7" width="230" height="20" as="geometry"/>
                </mxCell>
                <mxCell id="14" value="Overview" style="rounded=0;whiteSpace=wrap;html=1;fillColor=default;strokeColor=default;" parent="1" vertex="1">
                    <mxGeometry x="9" y="27" width="80" height="20" as="geometry"/>
                </mxCell>
                <mxCell id="15" value="Audio" style="rounded=0;whiteSpace=wrap;html=1;fillColor=#f5f5f5;strokeColor=#666666;fontColor=#333333;" parent="1" vertex="1">
                    <mxGeometry x="89" y="27" width="80" height="20" as="geometry"/>
                </mxCell>
                <mxCell id="16" value="Texture" style="rounded=0;whiteSpace=wrap;html=1;fillColor=#f5f5f5;strokeColor=#666666;fontColor=#333333;" parent="1" vertex="1">
                    <mxGeometry x="169" y="27" width="80" height="20" as="geometry"/>
                </mxCell>
                <mxCell id="17" value="SnapShot" style="rounded=0;whiteSpace=wrap;html=1;fillColor=#f5f5f5;strokeColor=#666666;fontColor=#333333;" parent="1" vertex="1">
                    <mxGeometry x="249" y="27" width="80" height="20" as="geometry"/>
                </mxCell>
                <mxCell id="10" value="" style="rounded=0;whiteSpace=wrap;html=1;fillColor=#eeeeee;strokeColor=#36393d;" parent="1" vertex="1">
                    <mxGeometry x="127" y="7" width="59" height="20" as="geometry"/>
                </mxCell>
                <mxCell id="30" value="" style="line;strokeWidth=1;fillColor=none;align=left;verticalAlign=middle;spacingTop=-1;spacingLeft=3;spacingRight=3;rotatable=0;labelPosition=right;points=[];portConstraint=eastwest;" parent="1" vertex="1">
                    <mxGeometry x="9" y="59" width="400" height="8" as="geometry"/>
                </mxCell>
                <mxCell id="34" value="" style="line;strokeWidth=1;fillColor=none;align=left;verticalAlign=middle;spacingTop=-1;spacingLeft=3;spacingRight=3;rotatable=0;labelPosition=right;points=[];portConstraint=eastwest;" parent="1" vertex="1">
                    <mxGeometry x="9" y="79" width="400" height="8" as="geometry"/>
                </mxCell>
                <mxCell id="35" value="" style="line;strokeWidth=1;fillColor=none;align=left;verticalAlign=middle;spacingTop=-1;spacingLeft=3;spacingRight=3;rotatable=0;labelPosition=right;points=[];portConstraint=eastwest;" parent="1" vertex="1">
                    <mxGeometry x="9" y="99" width="400" height="8" as="geometry"/>
                </mxCell>
                <mxCell id="36" value="" style="line;strokeWidth=1;fillColor=none;align=left;verticalAlign=middle;spacingTop=-1;spacingLeft=3;spacingRight=3;rotatable=0;labelPosition=right;points=[];portConstraint=eastwest;" parent="1" vertex="1">
                    <mxGeometry x="9" y="119" width="400" height="8" as="geometry"/>
                </mxCell>
                <mxCell id="37" value="" style="line;strokeWidth=1;fillColor=none;align=left;verticalAlign=middle;spacingTop=-1;spacingLeft=3;spacingRight=3;rotatable=0;labelPosition=right;points=[];portConstraint=eastwest;" parent="1" vertex="1">
                    <mxGeometry x="9" y="139" width="400" height="8" as="geometry"/>
                </mxCell>
                <mxCell id="38" value="FPS：" style="text;html=1;resizable=0;autosize=1;align=center;verticalAlign=middle;points=[];fillColor=none;strokeColor=none;rounded=0;" parent="1" vertex="1">
                    <mxGeometry x="4" y="47" width="50" height="20" as="geometry"/>
                </mxCell>
                <mxCell id="39" value="Memory：" style="text;html=1;resizable=0;autosize=1;align=center;verticalAlign=middle;points=[];fillColor=none;strokeColor=none;rounded=0;" parent="1" vertex="1">
                    <mxGeometry x="4" y="67" width="70" height="20" as="geometry"/>
                </mxCell>
                <mxCell id="40" value="txt：" style="text;html=1;resizable=0;autosize=1;align=center;verticalAlign=middle;points=[];fillColor=none;strokeColor=none;rounded=0;" parent="1" vertex="1">
                    <mxGeometry x="4" y="87" width="40" height="20" as="geometry"/>
                </mxCell>
                <mxCell id="41" value="audio：" style="text;html=1;resizable=0;autosize=1;align=center;verticalAlign=middle;points=[];fillColor=none;strokeColor=none;rounded=0;" parent="1" vertex="1">
                    <mxGeometry x="2" y="107" width="60" height="20" as="geometry"/>
                </mxCell>
                <mxCell id="42" value="drawcall：" style="text;html=1;resizable=0;autosize=1;align=center;verticalAlign=middle;points=[];fillColor=none;strokeColor=none;rounded=0;" parent="1" vertex="1">
                    <mxGeometry x="4" y="127" width="70" height="20" as="geometry"/>
                </mxCell>
                <mxCell id="153" value="TimeSort" style="rounded=0;whiteSpace=wrap;html=1;" parent="1" vertex="1">
                    <mxGeometry x="9" y="237" width="100" height="20" as="geometry"/>
                </mxCell>
                <mxCell id="154" value="MemorySort" style="rounded=0;whiteSpace=wrap;html=1;" parent="1" vertex="1">
                    <mxGeometry x="109" y="237" width="100" height="20" as="geometry"/>
                </mxCell>
                <mxCell id="155" value="Hide" style="rounded=0;whiteSpace=wrap;html=1;" parent="1" vertex="1">
                    <mxGeometry x="309" y="237" width="100" height="20" as="geometry"/>
                </mxCell>
                <mxCell id="156" value="Compare" style="rounded=0;whiteSpace=wrap;html=1;" parent="1" vertex="1">
                    <mxGeometry x="209" y="237" width="100" height="20" as="geometry"/>
                </mxCell>
                <mxCell id="157" value="" style="line;strokeWidth=1;fillColor=none;align=left;verticalAlign=middle;spacingTop=-1;spacingLeft=3;spacingRight=3;rotatable=0;labelPosition=right;points=[];portConstraint=eastwest;" parent="1" vertex="1">
                    <mxGeometry x="417" y="63" width="361" height="8" as="geometry"/>
                </mxCell>
                <mxCell id="85" value="" style="rounded=0;whiteSpace=wrap;html=1;" parent="1" vertex="1">
                    <mxGeometry x="417" y="7" width="400" height="250" as="geometry"/>
                </mxCell>
                <mxCell id="86" value="Log" style="rounded=0;whiteSpace=wrap;html=1;fillColor=#eeeeee;strokeColor=#36393d;" parent="1" vertex="1">
                    <mxGeometry x="417" y="7" width="59" height="20" as="geometry"/>
                </mxCell>
                <mxCell id="87" value="Memory" style="rounded=0;whiteSpace=wrap;html=1;" parent="1" vertex="1">
                    <mxGeometry x="476" y="7" width="59" height="20" as="geometry"/>
                </mxCell>
                <mxCell id="88" value="" style="rounded=0;whiteSpace=wrap;html=1;fillColor=#eeeeee;strokeColor=#36393d;" parent="1" vertex="1">
                    <mxGeometry x="587" y="7" width="230" height="20" as="geometry"/>
                </mxCell>
                <mxCell id="89" value="Overview" style="rounded=0;whiteSpace=wrap;html=1;fillColor=#f5f5f5;strokeColor=#666666;fontColor=#333333;" parent="1" vertex="1">
                    <mxGeometry x="417" y="27" width="80" height="20" as="geometry"/>
                </mxCell>
                <mxCell id="90" value="Audio" style="rounded=0;whiteSpace=wrap;html=1;" parent="1" vertex="1">
                    <mxGeometry x="497" y="27" width="80" height="20" as="geometry"/>
                </mxCell>
                <mxCell id="91" value="Texture" style="rounded=0;whiteSpace=wrap;html=1;" parent="1" vertex="1">
                    <mxGeometry x="577" y="27" width="80" height="20" as="geometry"/>
                </mxCell>
                <mxCell id="92" value="SnapShot" style="rounded=0;whiteSpace=wrap;html=1;fillColor=#f5f5f5;strokeColor=#666666;fontColor=#333333;" parent="1" vertex="1">
                    <mxGeometry x="657" y="27" width="80" height="20" as="geometry"/>
                </mxCell>
                <mxCell id="93" value="" style="rounded=0;whiteSpace=wrap;html=1;fillColor=#eeeeee;strokeColor=#36393d;" parent="1" vertex="1">
                    <mxGeometry x="535" y="7" width="59" height="20" as="geometry"/>
                </mxCell>
                <mxCell id="94" value="" style="line;strokeWidth=1;fillColor=none;align=left;verticalAlign=middle;spacingTop=-1;spacingLeft=3;spacingRight=3;rotatable=0;labelPosition=right;points=[];portConstraint=eastwest;direction=east;" parent="1" vertex="1">
                    <mxGeometry x="417" y="78" width="400" height="8" as="geometry"/>
                </mxCell>
                <mxCell id="95" value="" style="line;strokeWidth=1;fillColor=none;align=left;verticalAlign=middle;spacingTop=-1;spacingLeft=3;spacingRight=3;rotatable=0;labelPosition=right;points=[];portConstraint=eastwest;" parent="1" vertex="1">
                    <mxGeometry x="417" y="98" width="400" height="8" as="geometry"/>
                </mxCell>
                <mxCell id="96" value="" style="line;strokeWidth=1;fillColor=none;align=left;verticalAlign=middle;spacingTop=-1;spacingLeft=3;spacingRight=3;rotatable=0;labelPosition=right;points=[];portConstraint=eastwest;" parent="1" vertex="1">
                    <mxGeometry x="417" y="118" width="400" height="8" as="geometry"/>
                </mxCell>
                <mxCell id="97" value="" style="line;strokeWidth=1;fillColor=none;align=left;verticalAlign=middle;spacingTop=-1;spacingLeft=3;spacingRight=3;rotatable=0;labelPosition=right;points=[];portConstraint=eastwest;" parent="1" vertex="1">
                    <mxGeometry x="417" y="138" width="400" height="8" as="geometry"/>
                </mxCell>
                <mxCell id="98" value="" style="line;strokeWidth=1;fillColor=none;align=left;verticalAlign=middle;spacingTop=-1;spacingLeft=3;spacingRight=3;rotatable=0;labelPosition=right;points=[];portConstraint=eastwest;" parent="1" vertex="1">
                    <mxGeometry x="417" y="158" width="400" height="8" as="geometry"/>
                </mxCell>
                <mxCell id="99" value="Item" style="text;html=1;resizable=0;autosize=1;align=center;verticalAlign=middle;points=[];fillColor=none;strokeColor=none;rounded=0;" parent="1" vertex="1">
                    <mxGeometry x="439" y="66" width="40" height="20" as="geometry"/>
                </mxCell>
                <mxCell id="105" value="Time&lt;span style=&quot;color: rgba(0 , 0 , 0 , 0) ; font-family: monospace ; font-size: 0px&quot;&gt;%3CmxGraphModel%3E%3Croot%3E%3CmxCell%20id%3D%220%22%2F%3E%3CmxCell%20id%3D%221%22%20parent%3D%220%22%2F%3E%3CmxCell%20id%3D%222%22%20value%3D%22Item%22%20style%3D%22text%3Bhtml%3D1%3Bresizable%3D0%3Bautosize%3D1%3Balign%3Dcenter%3BverticalAlign%3Dmiddle%3Bpoints%3D%5B%5D%3BfillColor%3Dnone%3BstrokeColor%3Dnone%3Brounded%3D0%3B%22%20vertex%3D%221%22%20parent%3D%221%22%3E%3CmxGeometry%20x%3D%22452%22%20y%3D%2247%22%20width%3D%2240%22%20height%3D%2220%22%20as%3D%22geometry%22%2F%3E%3C%2FmxCell%3E%3C%2Froot%3E%3C%2FmxGraphModel%3E&lt;/span&gt;" style="text;html=1;resizable=0;autosize=1;align=center;verticalAlign=middle;points=[];fillColor=none;strokeColor=none;rounded=0;" parent="1" vertex="1">
                    <mxGeometry x="526" y="66" width="40" height="20" as="geometry"/>
                </mxCell>
                <mxCell id="106" value="URL" style="text;html=1;resizable=0;autosize=1;align=center;verticalAlign=middle;points=[];fillColor=none;strokeColor=none;rounded=0;" parent="1" vertex="1">
                    <mxGeometry x="614" y="66" width="40" height="20" as="geometry"/>
                </mxCell>
                <mxCell id="108" value="" style="line;strokeWidth=1;fillColor=none;align=left;verticalAlign=middle;spacingTop=-1;spacingLeft=3;spacingRight=3;rotatable=0;labelPosition=right;points=[];portConstraint=eastwest;direction=south;" parent="1" vertex="1">
                    <mxGeometry x="497" y="66" width="8" height="103" as="geometry"/>
                </mxCell>
                <mxCell id="109" value="" style="line;strokeWidth=1;fillColor=none;align=left;verticalAlign=middle;spacingTop=-1;spacingLeft=3;spacingRight=3;rotatable=0;labelPosition=right;points=[];portConstraint=eastwest;direction=south;" parent="1" vertex="1">
                    <mxGeometry x="586" y="66" width="8" height="103" as="geometry"/>
                </mxCell>
                <mxCell id="110" value="" style="line;strokeWidth=1;fillColor=none;align=left;verticalAlign=middle;spacingTop=-1;spacingLeft=3;spacingRight=3;rotatable=0;labelPosition=right;points=[];portConstraint=eastwest;direction=south;" parent="1" vertex="1">
                    <mxGeometry x="670" y="66" width="8" height="103" as="geometry"/>
                </mxCell>
                <mxCell id="111" value="" style="html=1;verticalLabelPosition=bottom;align=center;labelBackgroundColor=#ffffff;verticalAlign=top;strokeWidth=2;strokeColor=#CCCCCC;shadow=0;dashed=0;shape=mxgraph.ios7.icons.document;fillColor=default;" parent="1" vertex="1">
                    <mxGeometry x="730" y="87" width="14" height="11" as="geometry"/>
                </mxCell>
                <mxCell id="112" value="" style="html=1;verticalLabelPosition=bottom;align=center;labelBackgroundColor=#ffffff;verticalAlign=top;strokeWidth=2;strokeColor=#CCCCCC;shadow=0;dashed=0;shape=mxgraph.ios7.icons.document;fillColor=default;" parent="1" vertex="1">
                    <mxGeometry x="730" y="107" width="14" height="11" as="geometry"/>
                </mxCell>
                <mxCell id="113" value="" style="html=1;verticalLabelPosition=bottom;align=center;labelBackgroundColor=#ffffff;verticalAlign=top;strokeWidth=2;strokeColor=#CCCCCC;shadow=0;dashed=0;shape=mxgraph.ios7.icons.document;fillColor=default;" parent="1" vertex="1">
                    <mxGeometry x="730" y="127" width="14" height="11" as="geometry"/>
                </mxCell>
                <mxCell id="114" value="" style="html=1;verticalLabelPosition=bottom;align=center;labelBackgroundColor=#ffffff;verticalAlign=top;strokeWidth=2;strokeColor=#CCCCCC;shadow=0;dashed=0;shape=mxgraph.ios7.icons.document;fillColor=default;" parent="1" vertex="1">
                    <mxGeometry x="730" y="147" width="14" height="11" as="geometry"/>
                </mxCell>
                <mxCell id="158" value="Count：&amp;nbsp; &amp;nbsp; &amp;nbsp; &amp;nbsp;Memory：" style="text;html=1;resizable=0;autosize=1;align=center;verticalAlign=middle;points=[];fillColor=none;strokeColor=none;rounded=0;" parent="1" vertex="1">
                    <mxGeometry x="417" y="47" width="140" height="20" as="geometry"/>
                </mxCell>
                <mxCell id="197" value="AllocTracker" style="rounded=0;whiteSpace=wrap;html=1;fillColor=#f5f5f5;strokeColor=#666666;fontColor=#333333;" parent="1" vertex="1">
                    <mxGeometry x="329" y="27" width="80" height="20" as="geometry"/>
                </mxCell>
                <mxCell id="198" value="AllocTracker" style="rounded=0;whiteSpace=wrap;html=1;fillColor=#f5f5f5;strokeColor=#666666;fontColor=#333333;" parent="1" vertex="1">
                    <mxGeometry x="737" y="27" width="80" height="20" as="geometry"/>
                </mxCell>
                <mxCell id="200" value="TimeSort" style="rounded=0;whiteSpace=wrap;html=1;" parent="1" vertex="1">
                    <mxGeometry x="417" y="237" width="100" height="20" as="geometry"/>
                </mxCell>
                <mxCell id="201" value="MemorySort" style="rounded=0;whiteSpace=wrap;html=1;" parent="1" vertex="1">
                    <mxGeometry x="517" y="237" width="100" height="20" as="geometry"/>
                </mxCell>
                <mxCell id="202" value="Hide" style="rounded=0;whiteSpace=wrap;html=1;" parent="1" vertex="1">
                    <mxGeometry x="717" y="237" width="100" height="20" as="geometry"/>
                </mxCell>
                <mxCell id="203" value="Compare" style="rounded=0;whiteSpace=wrap;html=1;" parent="1" vertex="1">
                    <mxGeometry x="617" y="237" width="100" height="20" as="geometry"/>
                </mxCell>
                <mxCell id="208" value="" style="line;strokeWidth=1;fillColor=none;align=left;verticalAlign=middle;spacingTop=-1;spacingLeft=3;spacingRight=3;rotatable=0;labelPosition=right;points=[];portConstraint=eastwest;direction=east;" parent="1" vertex="1">
                    <mxGeometry x="417" y="63" width="400" height="8" as="geometry"/>
                </mxCell>
                <mxCell id="211" value="" style="line;strokeWidth=1;fillColor=none;align=left;verticalAlign=middle;spacingTop=-1;spacingLeft=3;spacingRight=3;rotatable=0;labelPosition=right;points=[];portConstraint=eastwest;" vertex="1" parent="1">
                    <mxGeometry x="8" y="339.5" width="361" height="8" as="geometry"/>
                </mxCell>
                <mxCell id="212" value="" style="rounded=0;whiteSpace=wrap;html=1;" vertex="1" parent="1">
                    <mxGeometry x="8" y="302.5" width="400" height="250" as="geometry"/>
                </mxCell>
                <mxCell id="213" value="Log" style="rounded=0;whiteSpace=wrap;html=1;fillColor=#eeeeee;strokeColor=#36393d;" vertex="1" parent="1">
                    <mxGeometry x="8" y="302.5" width="59" height="20" as="geometry"/>
                </mxCell>
                <mxCell id="214" value="Memory" style="rounded=0;whiteSpace=wrap;html=1;" vertex="1" parent="1">
                    <mxGeometry x="67" y="302.5" width="59" height="20" as="geometry"/>
                </mxCell>
                <mxCell id="215" value="" style="rounded=0;whiteSpace=wrap;html=1;fillColor=#eeeeee;strokeColor=#36393d;" vertex="1" parent="1">
                    <mxGeometry x="178" y="302.5" width="230" height="20" as="geometry"/>
                </mxCell>
                <mxCell id="216" value="Overview" style="rounded=0;whiteSpace=wrap;html=1;fillColor=#f5f5f5;strokeColor=#666666;fontColor=#333333;" vertex="1" parent="1">
                    <mxGeometry x="8" y="322.5" width="80" height="20" as="geometry"/>
                </mxCell>
                <mxCell id="217" value="Audio" style="rounded=0;whiteSpace=wrap;html=1;fillColor=#f5f5f5;fontColor=#333333;strokeColor=#666666;" vertex="1" parent="1">
                    <mxGeometry x="88" y="322.5" width="80" height="20" as="geometry"/>
                </mxCell>
                <mxCell id="218" value="Texture" style="rounded=0;whiteSpace=wrap;html=1;fillColor=#f5f5f5;fontColor=#333333;strokeColor=#666666;" vertex="1" parent="1">
                    <mxGeometry x="168" y="322.5" width="80" height="20" as="geometry"/>
                </mxCell>
                <mxCell id="219" value="SnapShot" style="rounded=0;whiteSpace=wrap;html=1;" vertex="1" parent="1">
                    <mxGeometry x="248" y="322.5" width="80" height="20" as="geometry"/>
                </mxCell>
                <mxCell id="220" value="" style="rounded=0;whiteSpace=wrap;html=1;fillColor=#eeeeee;strokeColor=#36393d;" vertex="1" parent="1">
                    <mxGeometry x="126" y="302.5" width="59" height="20" as="geometry"/>
                </mxCell>
                <mxCell id="221" value="" style="line;strokeWidth=1;fillColor=none;align=left;verticalAlign=middle;spacingTop=-1;spacingLeft=3;spacingRight=3;rotatable=0;labelPosition=right;points=[];portConstraint=eastwest;direction=east;" vertex="1" parent="1">
                    <mxGeometry x="8" y="354.5" width="400" height="8" as="geometry"/>
                </mxCell>
                <mxCell id="222" value="" style="line;strokeWidth=1;fillColor=none;align=left;verticalAlign=middle;spacingTop=-1;spacingLeft=3;spacingRight=3;rotatable=0;labelPosition=right;points=[];portConstraint=eastwest;" vertex="1" parent="1">
                    <mxGeometry x="8" y="374.5" width="400" height="8" as="geometry"/>
                </mxCell>
                <mxCell id="223" value="" style="line;strokeWidth=1;fillColor=none;align=left;verticalAlign=middle;spacingTop=-1;spacingLeft=3;spacingRight=3;rotatable=0;labelPosition=right;points=[];portConstraint=eastwest;" vertex="1" parent="1">
                    <mxGeometry x="8" y="394.5" width="400" height="8" as="geometry"/>
                </mxCell>
                <mxCell id="224" value="" style="line;strokeWidth=1;fillColor=none;align=left;verticalAlign=middle;spacingTop=-1;spacingLeft=3;spacingRight=3;rotatable=0;labelPosition=right;points=[];portConstraint=eastwest;" vertex="1" parent="1">
                    <mxGeometry x="8" y="414.5" width="400" height="8" as="geometry"/>
                </mxCell>
                <mxCell id="225" value="" style="line;strokeWidth=1;fillColor=none;align=left;verticalAlign=middle;spacingTop=-1;spacingLeft=3;spacingRight=3;rotatable=0;labelPosition=right;points=[];portConstraint=eastwest;" vertex="1" parent="1">
                    <mxGeometry x="8" y="434.5" width="400" height="8" as="geometry"/>
                </mxCell>
                <mxCell id="226" value="Time" style="text;html=1;resizable=0;autosize=1;align=center;verticalAlign=middle;points=[];fillColor=none;strokeColor=none;rounded=0;" vertex="1" parent="1">
                    <mxGeometry x="30" y="342.5" width="40" height="20" as="geometry"/>
                </mxCell>
                <mxCell id="227" value="Count" style="text;html=1;resizable=0;autosize=1;align=center;verticalAlign=middle;points=[];fillColor=none;strokeColor=none;rounded=0;" vertex="1" parent="1">
                    <mxGeometry x="112" y="342.5" width="50" height="20" as="geometry"/>
                </mxCell>
                <mxCell id="228" value="Memory" style="text;html=1;resizable=0;autosize=1;align=center;verticalAlign=middle;points=[];fillColor=none;strokeColor=none;rounded=0;" vertex="1" parent="1">
                    <mxGeometry x="195" y="342.5" width="60" height="20" as="geometry"/>
                </mxCell>
                <mxCell id="229" value="" style="line;strokeWidth=1;fillColor=none;align=left;verticalAlign=middle;spacingTop=-1;spacingLeft=3;spacingRight=3;rotatable=0;labelPosition=right;points=[];portConstraint=eastwest;direction=south;" vertex="1" parent="1">
                    <mxGeometry x="88" y="342.5" width="8" height="103" as="geometry"/>
                </mxCell>
                <mxCell id="230" value="" style="line;strokeWidth=1;fillColor=none;align=left;verticalAlign=middle;spacingTop=-1;spacingLeft=3;spacingRight=3;rotatable=0;labelPosition=right;points=[];portConstraint=eastwest;direction=south;" vertex="1" parent="1">
                    <mxGeometry x="177" y="342.5" width="8" height="103" as="geometry"/>
                </mxCell>
                <mxCell id="231" value="" style="line;strokeWidth=1;fillColor=none;align=left;verticalAlign=middle;spacingTop=-1;spacingLeft=3;spacingRight=3;rotatable=0;labelPosition=right;points=[];portConstraint=eastwest;direction=south;" vertex="1" parent="1">
                    <mxGeometry x="261" y="342.5" width="8" height="103" as="geometry"/>
                </mxCell>
                <mxCell id="237" value="AllocTracker" style="rounded=0;whiteSpace=wrap;html=1;fillColor=#f5f5f5;strokeColor=#666666;fontColor=#333333;" vertex="1" parent="1">
                    <mxGeometry x="328" y="322.5" width="80" height="20" as="geometry"/>
                </mxCell>
                <mxCell id="238" value="TimeSort" style="rounded=0;whiteSpace=wrap;html=1;" vertex="1" parent="1">
                    <mxGeometry x="8" y="532.5" width="100" height="20" as="geometry"/>
                </mxCell>
                <mxCell id="239" value="MemorySort" style="rounded=0;whiteSpace=wrap;html=1;" vertex="1" parent="1">
                    <mxGeometry x="108" y="532.5" width="100" height="20" as="geometry"/>
                </mxCell>
                <mxCell id="240" value="Hide" style="rounded=0;whiteSpace=wrap;html=1;" vertex="1" parent="1">
                    <mxGeometry x="308" y="532.5" width="100" height="20" as="geometry"/>
                </mxCell>
                <mxCell id="241" value="Compare" style="rounded=0;whiteSpace=wrap;html=1;" vertex="1" parent="1">
                    <mxGeometry x="208" y="532.5" width="100" height="20" as="geometry"/>
                </mxCell>
                <mxCell id="243" value="" style="ellipse;whiteSpace=wrap;html=1;aspect=fixed;strokeColor=#CCCCCC;fillColor=default;strokeWidth=2;" vertex="1" parent="1">
                    <mxGeometry x="323" y="365.5" width="9" height="9" as="geometry"/>
                </mxCell>
                <mxCell id="244" value="" style="ellipse;whiteSpace=wrap;html=1;aspect=fixed;strokeColor=#CCCCCC;fillColor=default;strokeWidth=2;" vertex="1" parent="1">
                    <mxGeometry x="323" y="385.5" width="9" height="9" as="geometry"/>
                </mxCell>
                <mxCell id="245" value="" style="ellipse;whiteSpace=wrap;html=1;aspect=fixed;strokeColor=#CCCCCC;fillColor=default;strokeWidth=2;" vertex="1" parent="1">
                    <mxGeometry x="323" y="406.5" width="9" height="9" as="geometry"/>
                </mxCell>
                <mxCell id="246" value="" style="ellipse;whiteSpace=wrap;html=1;aspect=fixed;strokeColor=#CCCCCC;fillColor=default;strokeWidth=2;" vertex="1" parent="1">
                    <mxGeometry x="323" y="425.5" width="9" height="9" as="geometry"/>
                </mxCell>
                <mxCell id="247" value="" style="rounded=0;whiteSpace=wrap;html=1;" vertex="1" parent="1">
                    <mxGeometry x="417" y="302.5" width="400" height="250" as="geometry"/>
                </mxCell>
                <mxCell id="248" value="" style="endArrow=classic;html=1;entryX=0.282;entryY=0.67;entryDx=0;entryDy=0;entryPerimeter=0;" edge="1" parent="1" target="247">
                    <mxGeometry width="50" height="50" relative="1" as="geometry">
                        <mxPoint x="290" y="530" as="sourcePoint"/>
                        <mxPoint x="340" y="480" as="targetPoint"/>
                    </mxGeometry>
                </mxCell>
                <mxCell id="249" value="" style="line;strokeWidth=1;fillColor=none;align=left;verticalAlign=middle;spacingTop=-1;spacingLeft=3;spacingRight=3;rotatable=0;labelPosition=right;points=[];portConstraint=eastwest;" vertex="1" parent="1">
                    <mxGeometry x="8" y="637" width="361" height="8" as="geometry"/>
                </mxCell>
                <mxCell id="250" value="" style="rounded=0;whiteSpace=wrap;html=1;" vertex="1" parent="1">
                    <mxGeometry x="8" y="600" width="400" height="250" as="geometry"/>
                </mxCell>
                <mxCell id="251" value="Log" style="rounded=0;whiteSpace=wrap;html=1;fillColor=#eeeeee;strokeColor=#36393d;" vertex="1" parent="1">
                    <mxGeometry x="8" y="600" width="59" height="20" as="geometry"/>
                </mxCell>
                <mxCell id="252" value="Memory" style="rounded=0;whiteSpace=wrap;html=1;" vertex="1" parent="1">
                    <mxGeometry x="67" y="600" width="59" height="20" as="geometry"/>
                </mxCell>
                <mxCell id="253" value="" style="rounded=0;whiteSpace=wrap;html=1;fillColor=#eeeeee;strokeColor=#36393d;" vertex="1" parent="1">
                    <mxGeometry x="178" y="600" width="230" height="20" as="geometry"/>
                </mxCell>
                <mxCell id="254" value="Overview" style="rounded=0;whiteSpace=wrap;html=1;fillColor=#f5f5f5;strokeColor=#666666;fontColor=#333333;" vertex="1" parent="1">
                    <mxGeometry x="8" y="620" width="80" height="20" as="geometry"/>
                </mxCell>
                <mxCell id="255" value="Audio" style="rounded=0;whiteSpace=wrap;html=1;fillColor=#f5f5f5;fontColor=#333333;strokeColor=#666666;" vertex="1" parent="1">
                    <mxGeometry x="88" y="620" width="80" height="20" as="geometry"/>
                </mxCell>
                <mxCell id="256" value="Texture" style="rounded=0;whiteSpace=wrap;html=1;fillColor=#f5f5f5;fontColor=#333333;strokeColor=#666666;" vertex="1" parent="1">
                    <mxGeometry x="168" y="620" width="80" height="20" as="geometry"/>
                </mxCell>
                <mxCell id="257" value="SnapShot" style="rounded=0;whiteSpace=wrap;html=1;fillColor=#f5f5f5;fontColor=#333333;strokeColor=#666666;" vertex="1" parent="1">
                    <mxGeometry x="248" y="620" width="80" height="20" as="geometry"/>
                </mxCell>
                <mxCell id="258" value="" style="rounded=0;whiteSpace=wrap;html=1;fillColor=#eeeeee;strokeColor=#36393d;" vertex="1" parent="1">
                    <mxGeometry x="126" y="600" width="59" height="20" as="geometry"/>
                </mxCell>
                <mxCell id="259" value="" style="line;strokeWidth=1;fillColor=none;align=left;verticalAlign=middle;spacingTop=-1;spacingLeft=3;spacingRight=3;rotatable=0;labelPosition=right;points=[];portConstraint=eastwest;direction=east;" vertex="1" parent="1">
                    <mxGeometry x="8" y="652" width="400" height="8" as="geometry"/>
                </mxCell>
                <mxCell id="260" value="" style="line;strokeWidth=1;fillColor=none;align=left;verticalAlign=middle;spacingTop=-1;spacingLeft=3;spacingRight=3;rotatable=0;labelPosition=right;points=[];portConstraint=eastwest;" vertex="1" parent="1">
                    <mxGeometry x="8" y="672" width="400" height="8" as="geometry"/>
                </mxCell>
                <mxCell id="261" value="" style="line;strokeWidth=1;fillColor=none;align=left;verticalAlign=middle;spacingTop=-1;spacingLeft=3;spacingRight=3;rotatable=0;labelPosition=right;points=[];portConstraint=eastwest;" vertex="1" parent="1">
                    <mxGeometry x="8" y="692" width="400" height="8" as="geometry"/>
                </mxCell>
                <mxCell id="262" value="" style="line;strokeWidth=1;fillColor=none;align=left;verticalAlign=middle;spacingTop=-1;spacingLeft=3;spacingRight=3;rotatable=0;labelPosition=right;points=[];portConstraint=eastwest;" vertex="1" parent="1">
                    <mxGeometry x="8" y="712" width="400" height="8" as="geometry"/>
                </mxCell>
                <mxCell id="263" value="" style="line;strokeWidth=1;fillColor=none;align=left;verticalAlign=middle;spacingTop=-1;spacingLeft=3;spacingRight=3;rotatable=0;labelPosition=right;points=[];portConstraint=eastwest;" vertex="1" parent="1">
                    <mxGeometry x="8" y="732" width="400" height="8" as="geometry"/>
                </mxCell>
                <mxCell id="264" value="Name" style="text;html=1;resizable=0;autosize=1;align=center;verticalAlign=middle;points=[];fillColor=none;strokeColor=none;rounded=0;" vertex="1" parent="1">
                    <mxGeometry x="25" y="640" width="50" height="20" as="geometry"/>
                </mxCell>
                <mxCell id="265" value="Alive" style="text;html=1;resizable=0;autosize=1;align=center;verticalAlign=middle;points=[];fillColor=none;strokeColor=none;rounded=0;" vertex="1" parent="1">
                    <mxGeometry x="117" y="640" width="40" height="20" as="geometry"/>
                </mxCell>
                <mxCell id="266" value="Dealed" style="text;html=1;resizable=0;autosize=1;align=center;verticalAlign=middle;points=[];fillColor=none;strokeColor=none;rounded=0;" vertex="1" parent="1">
                    <mxGeometry x="200" y="640" width="50" height="20" as="geometry"/>
                </mxCell>
                <mxCell id="267" value="" style="line;strokeWidth=1;fillColor=none;align=left;verticalAlign=middle;spacingTop=-1;spacingLeft=3;spacingRight=3;rotatable=0;labelPosition=right;points=[];portConstraint=eastwest;direction=south;" vertex="1" parent="1">
                    <mxGeometry x="88" y="640" width="8" height="103" as="geometry"/>
                </mxCell>
                <mxCell id="268" value="" style="line;strokeWidth=1;fillColor=none;align=left;verticalAlign=middle;spacingTop=-1;spacingLeft=3;spacingRight=3;rotatable=0;labelPosition=right;points=[];portConstraint=eastwest;direction=south;" vertex="1" parent="1">
                    <mxGeometry x="177" y="640" width="8" height="103" as="geometry"/>
                </mxCell>
                <mxCell id="269" value="" style="line;strokeWidth=1;fillColor=none;align=left;verticalAlign=middle;spacingTop=-1;spacingLeft=3;spacingRight=3;rotatable=0;labelPosition=right;points=[];portConstraint=eastwest;direction=south;" vertex="1" parent="1">
                    <mxGeometry x="261" y="640" width="8" height="103" as="geometry"/>
                </mxCell>
                <mxCell id="270" value="AllocTracker" style="rounded=0;whiteSpace=wrap;html=1;" vertex="1" parent="1">
                    <mxGeometry x="328" y="620" width="80" height="20" as="geometry"/>
                </mxCell>
                <mxCell id="271" value="TimeSort" style="rounded=0;whiteSpace=wrap;html=1;" vertex="1" parent="1">
                    <mxGeometry x="8" y="830" width="100" height="20" as="geometry"/>
                </mxCell>
                <mxCell id="272" value="MemorySort" style="rounded=0;whiteSpace=wrap;html=1;" vertex="1" parent="1">
                    <mxGeometry x="108" y="830" width="100" height="20" as="geometry"/>
                </mxCell>
                <mxCell id="273" value="Hide" style="rounded=0;whiteSpace=wrap;html=1;" vertex="1" parent="1">
                    <mxGeometry x="308" y="830" width="100" height="20" as="geometry"/>
                </mxCell>
                <mxCell id="274" value="Compare" style="rounded=0;whiteSpace=wrap;html=1;" vertex="1" parent="1">
                    <mxGeometry x="208" y="830" width="100" height="20" as="geometry"/>
                </mxCell>
                <mxCell id="279" value="Total" style="text;html=1;resizable=0;autosize=1;align=center;verticalAlign=middle;points=[];fillColor=none;strokeColor=none;rounded=0;" vertex="1" parent="1">
                    <mxGeometry x="307.5" y="640" width="40" height="20" as="geometry"/>
                </mxCell>
            </root>
        </mxGraphModel>
    </diagram>
</mxfile>